<svg width="172" height="196" viewBox="0 0 172 196" fill="none" xmlns="http://www.w3.org/2000/svg">
<path d="M145.934 25.2851C138.026 17.2991 128.618 10.9543 118.251 6.61509C107.884 2.27591 96.7612 0.0279197 85.5225 0.000258423C74.2838 -0.0274028 63.1504 2.16581 52.7618 6.45391C42.3733 10.742 32.9344 17.0405 24.9874 24.9875C17.0405 32.9344 10.742 42.3733 6.45391 52.7618C2.16581 63.1504 -0.0274028 74.2838 0.000258423 85.5225C0.0279197 96.7612 2.27592 107.884 6.6151 118.251C10.9543 128.618 17.2991 138.026 25.2851 145.934C33.1929 153.92 42.6007 160.265 52.968 164.604C63.3352 168.943 74.4577 171.191 85.6964 171.219C96.9351 171.246 108.069 169.053 118.457 164.765C128.846 160.477 138.284 154.178 146.231 146.231C154.178 138.284 160.477 128.846 164.765 118.457C169.053 108.069 171.246 96.9351 171.219 85.6964C171.191 74.4577 168.943 63.3352 164.604 52.968C160.265 42.6007 153.92 33.1929 145.934 25.2851ZM6.45391 89.5C6.45104 83.0281 7.51555 68.3081 10.5 61.4896C13.2955 67.5072 21.8917 77.6647 24.6529 83.8384C28.2216 91.7756 37.804 89.5742 42.0353 96.5287C45.7906 102.702 41.7802 110.51 44.5909 116.969C46.6323 121.658 51.4464 122.682 54.7675 126.11C58.1609 129.568 58.0886 134.306 58.6065 138.815C59.1906 144.114 60.1386 149.366 61.4439 154.534C61.4439 154.572 61.4439 164.5 61.4439 162.5C28 151.297 6.45391 121.367 6.45391 89.5ZM85.6964 167C81.6126 166.999 77.0271 166.178 73 165.5C73.0419 164.468 67.7702 149.45 70.3733 151.297C67.1609 140.918 75.4235 140.67 79.5139 136.138C83.5548 131.667 91.2119 131.042 94.6244 125.969C97.9683 121.018 98.97 114.353 97.5913 108.568C95.5613 100.021 83.9489 97.1685 77.6876 92.5335C74.0884 89.8675 70.8854 85.7466 66.159 85.4114C63.9804 85.2591 62.1561 85.7275 59.9967 85.1715C58.0162 84.6573 56.4623 83.5909 54.3523 83.8689C50.4104 84.3869 47.9234 88.5992 43.6883 88.0279C39.6702 87.4909 35.5303 82.7873 34.6162 78.9596C33.4431 74.0389 37.3355 72.4431 41.5059 72.0051C43.2465 71.8223 45.2003 71.6243 46.8722 72.2641C49.0736 73.0792 50.1134 75.2348 52.09 76.3241C55.7958 78.3579 56.5461 75.1092 55.9786 71.8185C55.1293 66.8902 54.139 64.8831 58.5342 61.4896C61.581 59.1511 64.1861 57.4601 63.6986 53.2593C63.4092 50.7913 62.0571 49.6754 63.3177 47.2188C64.2737 45.3488 66.8978 43.6616 68.6079 42.5457C73.022 39.6664 87.5175 39.8797 81.5952 31.8207C79.8547 29.4555 76.644 25.228 73.5971 24.6491C69.7886 23.9293 68.0975 28.1797 65.4429 30.0535C62.7008 31.9921 57.3611 34.1934 54.6151 31.1961C50.9208 27.1628 57.064 25.8412 58.4237 23.0228C59.0521 21.7089 53.8206 14.2177 52.7618 12.5C54.1355 11.9211 60.5807 8.99512 62 8.5C62.8895 9.15698 63.4991 17.6085 64.6012 17.6984C67.1492 17.866 69.5524 16.4873 71.7766 18.224C74.2446 20.1283 76.0232 22.5353 79.2986 23.1295C82.4674 23.7046 85.8227 21.8574 86.6073 18.6125C87.0834 16.6396 85.9795 8.49151 85.5225 6.45391C94 3.71875 117.5 7.21875 129 18.7188C128.238 18.4293 124.469 24.531 123.345 25.0528C121.033 26.1268 117.758 28.8614 117.487 31.5731C117.179 34.6505 121.719 35.0846 123.874 35.0846C127.112 35.0846 130.391 33.6374 129.347 29.8973C128.894 28.2749 128.277 26.5877 127.283 25.567C129.673 27.2249 131.323 22.7896 133.5 24.7188C134.361 21.7664 141 27.7188 136.587 30.0535C134.394 32.3386 129.294 35.1494 127.793 37.9297C126.735 39.8873 125.543 40.8166 123.398 41.3231C122.218 41.6011 120.869 41.704 119.879 42.4962C117.122 44.6671 118.691 49.8848 121.304 51.4502C124.606 53.4268 129.504 52.4975 131.994 49.6754C133.941 47.4664 135.087 43.6311 138.587 43.6349C140.128 43.6317 141.608 44.2351 142.708 45.3145C144.155 46.8151 143.87 48.2167 144.178 50.0905C144.723 53.4192 152.214 46.9941 154 45.3145C155.302 47.6317 158.458 53.2737 159.5 55.7188C157.535 58.5485 149.438 62.9978 144.711 59.6996C141.881 57.7229 140.141 54.855 136.587 53.9638C133.483 53.2021 130.303 53.9943 127.237 54.5237C123.753 55.1293 119.62 55.3959 116.977 58.0352C114.421 60.5794 113.069 63.9843 110.35 66.5398C105.09 71.491 102.87 76.8954 106.275 83.8956C109.55 90.6254 116.402 94.2778 123.794 93.7979C131.057 93.3142 138.602 89.1019 138.393 99.6555C138.317 103.392 139.097 105.978 140.244 109.447C141.306 112.647 141.234 115.747 141.478 119.049C141.709 122.916 150.031 128.75 151 132.5C146.5 142 132.496 153.107 122.5 158C112.504 162.893 96.8254 167 85.6964 167Z" fill="#2C365A"/>
<path d="M117.836 187.249L121.335 162.969L134.504 156.99C140.148 154.428 143.571 149.47 143.23 146.221C141.008 143.826 135.024 143.14 129.379 145.702L116.21 151.681L95.6279 138.334C94.3628 137.547 93.0632 137.683 92.1052 138.572L90.771 139.632C89.7103 140.794 89.4702 142.264 90.2562 143.496L101.159 158.514L92.6066 164.667L84.4001 161.585L80.6374 163.293L86.7895 171.846L89.1789 182.107L92.9416 180.398L96.0232 172.192L106.284 169.803L110.414 187.896C110.824 189.298 112.089 190.085 113.662 190.052L115.235 190.018C116.638 189.609 117.596 188.72 117.836 187.249Z" fill="#2C365A" stroke="#2C365A" stroke-width="2" stroke-linecap="round" stroke-linejoin="round"/>
</svg>
